<?xml version="1.0" encoding="UTF-8"?>
<svg width="180" height="40" viewBox="0 0 180 40" fill="none" xmlns="http://www.w3.org/2000/svg">
  <!-- Tree Logo -->
  <path d="M20 8L30 20L20 32L10 20L20 8Z" fill="#FBBF24"/>
  <path d="M20 12L26 20L20 28L14 20L20 12Z" fill="#121212"/>
  
  <!-- Tree Trunk -->
  <path d="M19 32L19 36L21 36L21 32L19 32Z" fill="#FBBF24"/>
  
  <!-- Text -->
  <path d="M40 28H44V12H40V28ZM48 28H52V12H48V28ZM56 28H60V12H56V28ZM64 28H68V12H64V28ZM72 28H76V12H72V28ZM80 28H84V12H80V28ZM88 28H92V12H88V28ZM96 28H100V12H96V28ZM104 28H108V12H104V28ZM112 28H116V12H112V28ZM120 28H124V12H120V28ZM128 28H132V12H128V28ZM136 28H140V12H136V28ZM144 28H148V12H144V28ZM152 28H156V12H152V28ZM160 28H164V12H160V28ZM168 28H172V12H168V28Z" fill="#FBBF24"/>
</svg> 